<?xml version="1.0" standalone="no"?>
<!DOCTYPE svg PUBLIC "-//W3C//DTD SVG 20010904//EN"
 "http://www.w3.org/TR/2001/REC-SVG-20010904/DTD/svg10.dtd">
<svg version="1.0" xmlns="http://www.w3.org/2000/svg"
 width="500.000000pt" height="500.000000pt" viewBox="0 0 500.000000 500.000000"
 preserveAspectRatio="xMidYMid meet">
<metadata>
Created by potrace 1.14, written by Peter Selinger 2001-2017
</metadata>
<g transform="translate(0.000000,500.000000) scale(0.100000,-0.100000)"
fill="#000000" stroke="none">
<path d="M700 3520 c0 -5 15 -10 33 -10 42 0 95 -28 121 -63 20 -27 21 -43 24
-333 l3 -304 190 0 189 0 0 290 c0 313 3 332 53 379 18 16 42 25 77 29 27 2
50 8 50 13 0 5 -166 9 -370 9 -240 0 -370 -4 -370 -10z"/>
<path d="M2100 3521 c0 -5 23 -11 51 -13 54 -6 97 -30 116 -69 9 -17 13 -106
13 -326 l0 -303 89 0 90 0 3 303 c2 226 6 308 16 327 21 39 61 63 114 68 26 2
48 8 48 13 0 5 -121 9 -270 9 -148 0 -270 -4 -270 -9z"/>
<path d="M2770 3522 c0 -5 20 -12 45 -14 54 -7 84 -25 122 -74 l28 -37 3 -294
3 -293 195 0 194 0 0 306 0 306 93 -4 c74 -4 102 -9 143 -31 102 -52 152 -143
161 -293 6 -93 -7 -166 -42 -235 l-24 -49 189 0 189 0 25 33 c86 113 104 303
41 433 -49 101 -167 183 -324 227 -72 20 -103 21 -558 25 -294 2 -483 0 -483
-6z"/>
<path d="M1320 2780 c-8 -5 -35 -10 -60 -11 -25 -1 -36 -3 -25 -6 43 -9 44
-11 24 -50 -16 -31 -19 -59 -19 -175 0 -152 -10 -195 -53 -223 -61 -40 -140
-27 -180 29 -20 28 -22 45 -25 174 -3 102 0 147 8 157 11 13 6 15 -31 15 -24
0 -39 -4 -32 -8 7 -5 12 -59 15 -159 3 -165 8 -180 72 -227 39 -30 143 -30
182 0 65 48 69 60 74 244 4 139 8 172 21 186 16 15 20 13 58 -26 l41 -42 0
-180 c0 -176 0 -179 -22 -188 -17 -6 -6 -9 42 -8 36 0 55 3 43 5 -31 6 -34 26
-31 187 l3 139 175 -194 c181 -201 229 -240 295 -238 28 0 27 2 -20 23 -29 13
-68 43 -93 71 l-42 48 0 168 c0 139 3 170 16 183 14 15 12 16 -26 16 -38 0
-40 -1 -26 -16 13 -13 16 -42 16 -166 0 -84 -4 -148 -9 -146 -5 2 -82 84 -171
183 -89 99 -172 187 -186 195 -30 18 -30 28 -1 40 20 8 20 9 2 9 -11 0 -27 -4
-35 -9z"/>
<path d="M1870 2693 c-51 -5 -89 -23 -95 -44 -8 -23 11 -59 31 -59 14 0 14 2
0 16 -20 19 -20 29 -2 47 18 17 96 31 108 19 5 -5 7 -89 6 -187 l-3 -179 -25
-13 c-22 -11 -18 -13 45 -12 52 0 64 3 48 9 -23 9 -23 12 -23 199 0 170 2 191
18 200 13 8 7 10 -28 9 -25 -1 -61 -3 -80 -5z"/>
<path d="M2594 2690 c-26 -10 -74 -67 -74 -87 0 -9 10 -1 23 18 29 43 60 59
120 59 94 0 149 -60 155 -171 3 -55 0 -77 -18 -114 -52 -107 -199 -138 -296
-63 -41 33 -64 93 -64 171 0 73 16 123 49 156 12 12 17 21 11 21 -21 0 -86
-77 -98 -116 -33 -112 9 -211 113 -267 57 -30 173 -30 231 0 113 60 153 187
95 301 -23 46 -46 67 -94 87 -39 16 -119 19 -153 5z"/>
<path d="M3123 2685 c-38 -16 -61 -49 -68 -96 -4 -28 -4 -30 4 -8 16 47 31 69
61 84 37 19 113 19 150 0 85 -44 115 -200 56 -287 -45 -67 -116 -96 -203 -83
-86 13 -153 103 -153 206 0 52 25 127 52 157 20 22 21 23 3 14 -30 -16 -72
-63 -84 -95 -18 -48 -13 -143 9 -188 60 -117 247 -154 364 -72 130 92 107 318
-37 372 -39 15 -116 13 -154 -4z"/>
<path d="M3912 2675 c-64 -54 -48 -113 53 -190 81 -62 110 -108 100 -155 -17
-76 -122 -106 -185 -53 -29 24 -31 30 -28 77 3 28 8 60 12 71 7 16 5 16 -9 -3
-43 -58 -24 -146 38 -179 41 -21 119 -20 152 1 33 22 65 74 65 107 0 47 -43
106 -122 169 -69 54 -78 66 -78 94 0 42 26 66 73 66 26 0 40 -6 51 -22 16 -22
16 -22 16 10 l0 32 -54 0 c-43 0 -60 -5 -84 -25z"/>
<path d="M2088 2678 c8 -8 12 -65 12 -191 l0 -179 -22 14 c-13 9 -31 35 -41
59 l-18 44 5 -39 c13 -99 148 -147 257 -91 93 49 86 175 -12 216 -26 10 -28
14 -16 28 39 43 27 110 -24 136 -35 19 -159 21 -141 3z m122 -28 c39 -39 16
-129 -33 -131 -12 0 0 -6 28 -14 62 -17 95 -52 95 -104 0 -50 -30 -88 -81
-101 -80 -22 -79 -23 -79 186 l0 184 25 0 c14 0 34 -9 45 -20z"/>
<path d="M3488 2678 c8 -8 12 -66 12 -195 0 -181 0 -184 -22 -193 -18 -7 -7
-9 42 -9 61 -1 63 0 42 15 -21 15 -22 21 -22 189 0 144 3 176 16 189 14 15 11
16 -32 16 -37 0 -45 -3 -36 -12z"/>
<path d="M3700 2675 c0 -9 -31 -55 -69 -102 l-70 -87 90 -97 c104 -113 161
-166 194 -181 22 -10 24 -15 18 -52 -18 -118 -91 -224 -186 -270 -59 -29 -152
-46 -249 -46 l-68 0 0 175 0 175 -194 0 -194 0 -4 -163 c-3 -155 -4 -165 -28
-200 -28 -42 -91 -77 -138 -77 -22 0 -32 -5 -32 -15 0 -13 57 -15 453 -15 467
0 572 7 706 46 203 59 359 212 377 370 l6 52 -188 4 c-245 5 -234 0 -414 194
l-109 117 71 81 c39 44 81 86 92 93 19 11 17 12 -21 13 -32 0 -43 -4 -43 -15z"/>
<path d="M4387 2504 c-19 -19 1 -24 89 -24 72 0 95 3 92 13 -5 13 -168 23
-181 11z"/>
<path d="M4597 2504 c-19 -19 1 -24 89 -24 72 0 95 3 92 13 -5 13 -168 23
-181 11z"/>
<path d="M297 2464 c-19 -19 1 -24 89 -24 72 0 95 3 92 13 -5 13 -168 23 -181
11z"/>
<path d="M507 2464 c-19 -19 1 -24 89 -24 72 0 95 3 92 13 -5 13 -168 23 -181
11z"/>
<path d="M900 2174 c0 -26 75 -176 109 -219 140 -173 385 -265 708 -265 255 0
434 66 576 213 58 61 131 189 143 255 l6 32 -91 0 c-58 0 -91 -4 -91 -11 0 -6
-14 -44 -31 -86 -67 -160 -206 -263 -387 -285 -260 -33 -472 99 -543 340 l-12
42 -194 0 c-170 0 -193 -2 -193 -16z"/>
</g>
</svg>
